# xmcd CD database file
#
# Track frame offsets:
#	150
#	26947
#	47447
#	101292
#
# Disc length: 1659 seconds
#
# Revision: 0
# Processed by: cddbd v1.5.1PL0 Copyright (c) Steve Scherf et al.
# Submitted via: CDex 1.51
#
DISCID=27067904
DTITLE=馬場俊英 - BOYS ON THE RUN 4 SONGS
DYEAR=2005
DGENRE=Japanese Rock
TTITLE0=ボーイズ・オン・ザ・ラン
TTITLE1=スタートライン
TTITLE2=男たちへ女たちへ
TTITLE3=花火
EXTD=YEAR: 2005
EXTT0=
EXTT1=
EXTT2=
EXTT3=
PLAYORDER=
